<svg width="82" height="82" viewBox="0 0 82 82" fill="none" xmlns="http://www.w3.org/2000/svg">
<circle cx="41" cy="41" r="40.5" fill="#F9F2EC" stroke="#332E2A"/>
<path d="M41.5122 16C34.7714 16 29.2561 22.8634 29.2561 31.3201C29.2561 39.7769 34.7714 46.6403 41.5122 46.6403C48.2531 46.6403 53.7683 39.7769 53.7683 31.3201C53.7683 22.8634 48.2531 16 41.5122 16ZM28.7046 46.6403C22.2088 46.9467 17 52.2781 17 58.8964V65.0245H66.0245V58.8964C66.0245 52.2781 60.8769 46.9467 54.3199 46.6403C51.0107 50.3784 46.476 52.7683 41.5122 52.7683C36.5485 52.7683 32.0137 50.3784 28.7046 46.6403Z" fill="#332E2A"/>
</svg>
