<svg width="284" height="416" viewBox="0 0 284 416" fill="none" xmlns="http://www.w3.org/2000/svg">
<path d="M56.576 80.101C63.0587 80.101 68.1417 80.8377 71.825 82.311C75.6557 83.637 79.56 85.626 83.538 88.278C86.7793 90.3407 89.284 91.372 91.052 91.372C92.378 91.372 93.4093 90.6353 94.146 89.162C94.8827 87.5413 95.472 85.0367 95.914 81.648H100.997C100.26 90.1933 99.892 105.221 99.892 126.732H94.809C93.925 114.798 90.4627 104.779 84.422 96.676C78.5287 88.4253 69.9097 84.3 58.565 84.3C50.609 84.3 44.1263 86.731 39.117 91.593C34.1077 96.3077 31.603 102.422 31.603 109.936C31.603 115.535 32.8553 120.397 35.36 124.522C38.012 128.647 41.327 132.183 45.305 135.13C49.283 138.077 54.9553 141.834 62.322 146.401L68.731 150.379C78.013 156.125 85.306 161.208 90.61 165.628C96.0613 169.901 100.408 174.836 103.649 180.435C106.89 186.034 108.511 192.59 108.511 200.104C108.511 213.511 104.091 223.898 95.251 231.265C86.411 238.484 75.2137 242.094 61.659 242.094C54.587 242.094 48.7673 241.357 44.2 239.884C39.78 238.411 35.5073 236.422 31.382 233.917C28.1407 231.854 25.636 230.823 23.868 230.823C22.542 230.823 21.5107 231.633 20.774 233.254C20.0373 234.727 19.448 237.158 19.006 240.547H13.923C14.5123 232.444 14.807 214.764 14.807 187.507H19.89C20.9213 202.388 24.6047 214.469 30.94 223.751C37.2753 233.033 46.9993 237.674 60.112 237.674C68.068 237.674 74.8453 235.243 80.444 230.381C86.0427 225.372 88.842 218.005 88.842 208.281C88.842 200.03 86.0427 193.032 80.444 187.286C74.9927 181.54 66.3 175.057 54.366 167.838C45.6733 162.534 38.6013 157.819 33.15 153.694C27.846 149.569 23.4997 144.633 20.111 138.887C16.7223 132.994 15.028 126.143 15.028 118.334C15.028 105.958 19.006 96.5287 26.962 90.046C34.918 83.416 44.7893 80.101 56.576 80.101Z" fill="#332E2A"/>
<path d="M274.209 207.952C268.905 208.247 265.001 208.836 262.496 209.72C260.139 210.604 258.518 212.298 257.634 214.803C256.75 217.308 256.308 221.359 256.308 226.958V336.574C256.308 342.173 256.75 346.224 257.634 348.729C258.518 351.234 260.139 352.928 262.496 353.812C265.001 354.696 268.905 355.285 274.209 355.58V360C267.432 359.558 258.076 359.337 246.142 359.337C233.471 359.337 224.042 359.558 217.854 360V355.58C223.158 355.285 226.989 354.696 229.346 353.812C231.851 352.928 233.545 351.234 234.429 348.729C235.313 346.224 235.755 342.173 235.755 336.574V218.118L182.494 361.105H178.958L123.266 217.676V334.364C123.266 340.11 123.708 344.383 124.592 347.182C125.623 349.981 127.539 352.044 130.338 353.37C133.137 354.549 137.484 355.285 143.377 355.58V360C138.073 359.558 130.559 359.337 120.835 359.337C111.995 359.337 105.144 359.558 100.282 360V355.58C105.439 355.285 109.269 354.549 111.774 353.37C114.279 352.044 115.973 349.981 116.857 347.182C117.741 344.235 118.183 339.963 118.183 334.364V226.958C118.183 221.359 117.741 217.308 116.857 214.803C115.973 212.298 114.279 210.604 111.774 209.72C109.417 208.836 105.586 208.247 100.282 207.952V203.532C105.144 203.974 111.995 204.195 120.835 204.195C128.496 204.195 134.758 203.974 139.62 203.532L188.24 331.491L235.755 204.195H246.142C258.076 204.195 267.432 203.974 274.209 203.532V207.952Z" fill="#332E2A"/>
</svg>
