<svg width="186" height="285" viewBox="0 0 186 285" fill="none" xmlns="http://www.w3.org/2000/svg">
<path d="M38.4 54.15C42.8 54.15 46.25 54.65 48.75 55.65C51.35 56.55 54 57.9 56.7 59.7C58.9 61.1 60.6 61.8 61.8 61.8C62.7 61.8 63.4 61.3 63.9 60.3C64.4 59.2 64.8 57.5 65.1 55.2H68.55C68.05 61 67.8 71.2 67.8 85.8H64.35C63.75 77.7 61.4 70.9 57.3 65.4C53.3 59.8 47.45 57 39.75 57C34.35 57 29.95 58.65 26.55 61.95C23.15 65.15 21.45 69.3 21.45 74.4C21.45 78.2 22.3 81.5 24 84.3C25.8 87.1 28.05 89.5 30.75 91.5C33.45 93.5 37.3 96.05 42.3 99.15L46.65 101.85C52.95 105.75 57.9 109.2 61.5 112.2C65.2 115.1 68.15 118.45 70.35 122.25C72.55 126.05 73.65 130.5 73.65 135.6C73.65 144.7 70.65 151.75 64.65 156.75C58.65 161.65 51.05 164.1 41.85 164.1C37.05 164.1 33.1 163.6 30 162.6C27 161.6 24.1 160.25 21.3 158.55C19.1 157.15 17.4 156.45 16.2 156.45C15.3 156.45 14.6 157 14.1 158.1C13.6 159.1 13.2 160.75 12.9 163.05H9.45C9.85 157.55 10.05 145.55 10.05 127.05H13.5C14.2 137.15 16.7 145.35 21 151.65C25.3 157.95 31.9 161.1 40.8 161.1C46.2 161.1 50.8 159.45 54.6 156.15C58.4 152.75 60.3 147.75 60.3 141.15C60.3 135.55 58.4 130.8 54.6 126.9C50.9 123 45 118.6 36.9 113.7C31 110.1 26.2 106.9 22.5 104.1C18.9 101.3 15.95 97.95 13.65 94.05C11.35 90.05 10.2 85.4 10.2 80.1C10.2 71.7 12.9 65.3 18.3 60.9C23.7 56.4 30.4 54.15 38.4 54.15Z" fill="#332E2A"/>
<path d="M179.35 143.8C175.75 144 173.1 144.4 171.4 145C169.8 145.6 168.7 146.75 168.1 148.45C167.5 150.15 167.2 152.9 167.2 156.7V231.1C167.2 234.9 167.5 237.65 168.1 239.35C168.7 241.05 169.8 242.2 171.4 242.8C173.1 243.4 175.75 243.8 179.35 244V247C174.75 246.7 168.4 246.55 160.3 246.55C151.7 246.55 145.3 246.7 141.1 247V244C144.7 243.8 147.3 243.4 148.9 242.8C150.6 242.2 151.75 241.05 152.35 239.35C152.95 237.65 153.25 234.9 153.25 231.1V150.7L117.1 247.75H114.7L76.9 150.4V229.6C76.9 233.5 77.2 236.4 77.8 238.3C78.5 240.2 79.8 241.6 81.7 242.5C83.6 243.3 86.55 243.8 90.55 244V247C86.95 246.7 81.85 246.55 75.25 246.55C69.25 246.55 64.6 246.7 61.3 247V244C64.8 243.8 67.4 243.3 69.1 242.5C70.8 241.6 71.95 240.2 72.55 238.3C73.15 236.3 73.45 233.4 73.45 229.6V156.7C73.45 152.9 73.15 150.15 72.55 148.45C71.95 146.75 70.8 145.6 69.1 145C67.5 144.4 64.9 144 61.3 143.8V140.8C64.6 141.1 69.25 141.25 75.25 141.25C80.45 141.25 84.7 141.1 88 140.8L121 227.65L153.25 141.25H160.3C168.4 141.25 174.75 141.1 179.35 140.8V143.8Z" fill="#332E2A"/>
</svg>
